<svg xmlns="http://www.w3.org/2000/svg" xmlns:xlink="http://www.w3.org/1999/xlink" xmlns:lucid="lucid" width="4016.75" height="1871.92"><g transform="translate(1028.0107444925802 93.63272890925873)" lucid:page-tab-id="0_0"><path d="M-1500-500h4500v2500h-4500z" fill="#fafafa"/><path d="M-1008-67.63a6 6 0 0 1 6-6h3964.74a6 6 0 0 1 6 6v1819.9a6 6 0 0 1-6 6H-1002a6 6 0 0 1-6-6z" stroke="#5e5e5e" stroke-width="3" fill="#fff"/><path d="M-874.48 88.8a6 6 0 0 1 6-6h1896.7a6 6 0 0 1 6 6v1567.77a6 6 0 0 1-6 6h-1896.7a6 6 0 0 1-6-6zM2285.62 453.93a6 6 0 0 1 6-6h582a6 6 0 0 1 6 6v242a6 6 0 0 1-6 6h-582a6 6 0 0 1-6-6z" stroke="#5e5e5e" stroke-width="3" fill="#fff"/><use xlink:href="#a" transform="matrix(1,0,0,1,2297.62197803613,459.9320398614484) translate(162.30246913580248 123.73611111111111)"/><use xlink:href="#b" transform="matrix(1,0,0,1,2297.62197803613,459.9320398614484) translate(284.1975308641976 123.73611111111111)"/><path d="M-772.45 424.94a6 6 0 0 1 6-6h286.74a6 6 0 0 1 6 6V656.9a6 6 0 0 1-6 6h-286.75a6 6 0 0 1-6-6z" stroke="#5e5e5e" stroke-width="3" fill="#fff"/><use xlink:href="#c" transform="matrix(1,0,0,1,-760.247443359632,431.1358619737609) translate(81.11111111111114 116.04166666666666)"/><path d="M-368.58 403.8a6 6 0 0 1 6-6h261.76a6 6 0 0 1 6 6v292.77a6 6 0 0 1-6 6h-261.76a6 6 0 0 1-6-6z" stroke="#5e5e5e" stroke-width="3" fill="#fff"/><use xlink:href="#d" transform="matrix(1,0,0,1,-354.89020975229624,411.47413953670474) translate(21.833333333333357 143.94791666666666)"/><path d="M-474.55 535.88l86-.05M-474.52 535.88h-1.03" stroke="#5e5e5e" stroke-width="2" fill="none"/><path d="M-373.28 535.82l-14.26 4.64v-9.27z" stroke="#5e5e5e" stroke-width="2" fill="#5e5e5e"/><path d="M-92.36 546.75H34.3" stroke="#5e5e5e" stroke-width="2" fill="none"/><path d="M-92.33 545.75v2h-1.03v-2z" stroke="#5e5e5e" stroke-width=".05" fill="#5e5e5e"/><path d="M49.56 546.76L35.3 551.4v-9.28z" stroke="#5e5e5e" stroke-width="2" fill="#5e5e5e"/><path d="M54.26 384.72a6 6 0 0 1 6-6h285.46a6 6 0 0 1 6 6v329a6 6 0 0 1-6 6H60.26a6 6 0 0 1-6-6z" stroke="#5e5e5e" stroke-width="3" fill="#fff"/><path d="M113.5 417.13a6 6 0 0 1 6-6h166.97a6 6 0 0 1 6 6v119.3a6 6 0 0 1-6 6H119.5a6 6 0 0 1-6-6z" stroke="#5e5e5e" stroke-width="3" fill="#fff"/><use xlink:href="#e" transform="matrix(1,0,0,1,120.07473258768844,417.6965878523609) translate(12.768518518518547 67.57291666666666)"/><path d="M113.5 569.66a6 6 0 0 1 6-6h166.97a6 6 0 0 1 6 6v119.28a6 6 0 0 1-6 6H119.5a6 6 0 0 1-6-6z" stroke="#5e5e5e" stroke-width="3" fill="#fff"/><use xlink:href="#f" transform="matrix(1,0,0,1,120.07473258768849,570.2239713128388) translate(40.50000000000002 67.57291666666666)"/><path d="M294.94 638.9h140.8" stroke="#5e5e5e" stroke-width="2" fill="none"/><path d="M294.97 637.9v2h-1.03v-2z" stroke="#5e5e5e" stroke-width=".05" fill="#5e5e5e"/><path d="M451 638.9l-14.27 4.64v-9.27z" stroke="#5e5e5e" stroke-width="2" fill="#5e5e5e"/><path d="M455.7 449.54a6 6 0 0 1 6-6h307.07a6 6 0 0 1 6 6V791.9a6 6 0 0 1-6 6H461.7a6 6 0 0 1-6-6z" stroke="#5e5e5e" stroke-width="3" fill="#fff"/><path d="M525.75 481.28a6 6 0 0 1 6-6H698.7a6 6 0 0 1 6 6v119.28a6 6 0 0 1-6 6H531.76a6 6 0 0 1-6-6z" stroke="#5e5e5e" stroke-width="3" fill="#fff"/><use xlink:href="#g" transform="matrix(1,0,0,1,532.313530894306,481.84124705653795) translate(12.907407407407433 67.57291666666666)"/><path d="M525.75 645.92a6 6 0 0 1 6-6H698.7a6 6 0 0 1 6 6v119.3a6 6 0 0 1-6 6H531.76a6 6 0 0 1-6-6z" stroke="#5e5e5e" stroke-width="3" fill="#fff"/><use xlink:href="#h" transform="matrix(1,0,0,1,532.3135308943058,646.4876630430065) translate(-0.19444444444441444 66.16666666666666)"/><path d="M205.5 695.13v190.94M205.5 695.15v-1.02" stroke="#5e5e5e" stroke-width="2" fill="none"/><path d="M205.5 901.33l-4.65-14.26h9.27z" stroke="#5e5e5e" stroke-width="2" fill="#5e5e5e"/><path d="M-49.08 912.03a6 6 0 0 1 6-6h497.13a6 6 0 0 1 6 6v534.2a6 6 0 0 1-6 6H-43.08a6 6 0 0 1-6-6z" stroke="#5e5e5e" stroke-width="3" fill="#fff"/><path d="M-6.26 1103.9a6 6 0 0 1 6-6h191.74a6 6 0 0 1 6 6v126.47a6 6 0 0 1-6 6H-.26a6 6 0 0 1-6-6z" stroke="#5e5e5e" stroke-width="3" fill="#fff"/><use xlink:href="#i" transform="matrix(1,0,0,1,0.6594521131437681,1104.8152547134089) translate(12.185185185185247 68.20833333333331)"/><path d="M130.06 942a6 6 0 0 1 6-6H327.8a6 6 0 0 1 6 6v126.48a6 6 0 0 1-6 6H136.07a6 6 0 0 1-6-6z" stroke="#5e5e5e" stroke-width="3" fill="#fff"/><use xlink:href="#j" transform="matrix(1,0,0,1,136.98640851860037,942.9293969193292) translate(27.000000000000043 68.20833333333331)"/><path d="M118 1265.78a6 6 0 0 1 6-6h191.74a6 6 0 0 1 6 6v126.47a6 6 0 0 1-6 6H124a6 6 0 0 1-6-6z" stroke="#5e5e5e" stroke-width="3" fill="#fff"/><use xlink:href="#k" transform="matrix(1,0,0,1,124.91579258688435,1266.7011125074885) translate(26.22222222222227 68.20833333333331)"/><path d="M236.94 1103.9a6 6 0 0 1 6-6H434.7a6 6 0 0 1 6 6v126.47a6 6 0 0 1-6 6H242.93a6 6 0 0 1-6-6z" stroke="#5e5e5e" stroke-width="3" fill="#fff"/><use xlink:href="#l" transform="matrix(1,0,0,1,243.8664998507219,1104.8152547134089) translate(-4.679012345678927 67.38888888888889)"/><path d="M1155.43 88.8a6 6 0 0 1 6-6H2216a6 6 0 0 1 6 6v1555.7a6 6 0 0 1-6 6H1161.44a6 6 0 0 1-6-6z" stroke="#5e5e5e" stroke-width="3" fill="#fff"/><path d="M16.87 156a6 6 0 0 1 6-6h348.4a6 6 0 0 1 6 6v70.68a6 6 0 0 1-6 6H22.86a6 6 0 0 1-6-6z" fill="none"/><use xlink:href="#m" transform="matrix(1,0,0,1,28.869581126793264,162) translate(0 39.27777777777777)"/><use xlink:href="#n" transform="matrix(1,0,0,1,28.869581126793264,162) translate(141.09876543209867 39.27777777777777)"/><path d="M1617.47 160.63a6 6 0 0 1 6-6h167.56a6 6 0 0 1 6 6v60a6 6 0 0 1-6 6h-167.56a6 6 0 0 1-6-6z" fill="none"/><use xlink:href="#o" transform="matrix(1,0,0,1,1629.4669583359484,166.62806361054288) translate(0 32.5)"/><path d="M1344.07 335.5a6 6 0 0 1 6-6h693.36a6 6 0 0 1 6 6v437.16a6 6 0 0 1-6 6h-693.36a6 6 0 0 1-6-6z" stroke="#5e5e5e" stroke-width="3" fill="#fff"/><use xlink:href="#p" transform="matrix(1,0,0,1,1366.527192344589,351.96349014747534) translate(306.84567901234567 211.96006944444443)"/><path d="M1344.07 1011.26a6 6 0 0 1 6-6h714.36a6 6 0 0 1 6 6v451.4a6 6 0 0 1-6 6h-714.36a6 6 0 0 1-6-6z" stroke="#5e5e5e" stroke-width="3" fill="#fff"/><use xlink:href="#q" transform="matrix(1,0,0,1,1367.239306392853,1028.4333232305235) translate(286.24074074074076 218.43055555555554)"/><path d="M462.5 1149.93l672.98-5.87" stroke="#5e5e5e" stroke-width="2" fill="none"/><path d="M462.55 1150.93h-1.04v-2h1.03z" stroke="#5e5e5e" stroke-width=".05" fill="#5e5e5e"/><path d="M1150.74 1143.93l-14.22 4.76-.08-9.28z" stroke="#5e5e5e" stroke-width="2" fill="#5e5e5e"/><path d="M727.15 1017.3a6 6 0 0 1 6-6h98.3a6 6 0 0 1 6 6v118.68a6 6 0 0 1-6 6h-98.3a6 6 0 0 1-6-6z" fill="none"/><use xlink:href="#r" transform="matrix(1,0,0,1,739.1516249533743,1023.3021403184969) translate(0 17.94444444444445)"/><use xlink:href="#s" transform="matrix(1,0,0,1,739.1516249533743,1023.3021403184969) translate(0 44.611111111111114)"/><use xlink:href="#t" transform="matrix(1,0,0,1,739.1516249533743,1023.3021403184969) translate(0 71.27777777777779)"/><use xlink:href="#u" transform="matrix(1,0,0,1,739.1516249533743,1023.3021403184969) translate(0 97.94444444444446)"/><path d="M1707.25 1002.8V798.62" stroke="#5e5e5e" stroke-width="2" fill="none"/><path d="M1708.25 1003.8h-2v-1.03h2z" stroke="#5e5e5e" stroke-width=".05" fill="#5e5e5e"/><path d="M1707.25 783.36l4.64 14.26h-9.3z" stroke="#5e5e5e" stroke-width="2" fill="#5e5e5e"/><path d="M1628 781.13v188.83L480 975.9" stroke="#5e5e5e" stroke-width="2" fill="none"/><path d="M1629 781.16h-2v-1.03h2z" stroke="#5e5e5e" stroke-width=".05" fill="#5e5e5e"/><path d="M464.72 975.98l14.25-4.7.04 9.26z" stroke="#5e5e5e" stroke-width="2" fill="#5e5e5e"/><path d="M704.7 912.03a6 6 0 0 1 6-6h111.96a6 6 0 0 1 6 6v38.68a6 6 0 0 1-6 6H710.7a6 6 0 0 1-6-6z" fill="none"/><use xlink:href="#v" transform="matrix(1,0,0,1,716.7117473313396,918.0331639582439) translate(0 17.944444444444443)"/><path d="M1744.77 880.16a6 6 0 0 1 6-6h227.97a6 6 0 0 1 6 6v49.35a6 6 0 0 1-6 6h-227.97a6 6 0 0 1-6-6z" fill="none"/><use xlink:href="#w" transform="matrix(1,0,0,1,1756.7704436412314,886.1642063456641) translate(0 25.22222222222222)"/><use xlink:href="#x" transform="matrix(1,0,0,1,1756.7704436412314,886.1642063456641) translate(25.925925925925917 25.22222222222222)"/><path d="M2051.9 587.78h213.76" stroke="#5e5e5e" stroke-width="2" fill="none"/><path d="M2051.92 588.78h-1.02v-2h1.02z" stroke="#5e5e5e" stroke-width=".05" fill="#5e5e5e"/><path d="M2280.93 587.78l-14.27 4.64v-9.27z" stroke="#5e5e5e" stroke-width="2" fill="#5e5e5e"/><path d="M925.62-27a6 6 0 0 1 6-6h312.57a6 6 0 0 1 6 6v73.34a6 6 0 0 1-6 6H931.6a6 6 0 0 1-6-6z" fill="none"/><g><use xlink:href="#y" transform="matrix(1,0,0,1,937.6197118764183,-21) translate(0 41.222222222222214)"/><use xlink:href="#z" transform="matrix(1,0,0,1,937.6197118764183,-21) translate(209.9814814814813 41.222222222222214)"/></g><defs><path fill="#333" d="M30-248c87 1 191-15 191 75 0 78-77 80-158 76V0H30v-248zm33 125c57 0 124 11 124-50 0-59-68-47-124-48v98" id="A"/><path fill="#333" d="M100-194c62-1 85 37 85 99 1 63-27 99-86 99S16-35 15-95c0-66 28-99 85-99zM99-20c44 1 53-31 53-75 0-43-8-75-51-75s-53 32-53 75 10 74 51 75" id="B"/><path fill="#333" d="M135-143c-3-34-86-38-87 0 15 53 115 12 119 90S17 21 10-45l28-5c4 36 97 45 98 0-10-56-113-15-118-90-4-57 82-63 122-42 12 7 21 19 24 35" id="C"/><path fill="#333" d="M59-47c-2 24 18 29 38 22v24C64 9 27 4 27-40v-127H5v-23h24l9-43h21v43h35v23H59v120" id="D"/><path fill="#333" d="M177-190C167-65 218 103 67 71c-23-6-38-20-44-43l32-5c15 47 100 32 89-28v-30C133-14 115 1 83 1 29 1 15-40 15-95c0-56 16-97 71-98 29-1 48 16 59 35 1-10 0-23 2-32h30zM94-22c36 0 50-32 50-73 0-42-14-75-50-75-39 0-46 34-46 75s6 73 46 73" id="E"/><path fill="#333" d="M114-163C36-179 61-72 57 0H25l-1-190h30c1 12-1 29 2 39 6-27 23-49 58-41v29" id="F"/><path fill="#333" d="M100-194c63 0 86 42 84 106H49c0 40 14 67 53 68 26 1 43-12 49-29l28 8c-11 28-37 45-77 45C44 4 14-33 15-96c1-61 26-98 85-98zm52 81c6-60-76-77-97-28-3 7-6 17-6 28h103" id="G"/><g id="a"><use transform="matrix(0.08024691358024691,0,0,0.08024691358024691,0,0)" xlink:href="#A"/><use transform="matrix(0.08024691358024691,0,0,0.08024691358024691,19.25925925925926,0)" xlink:href="#B"/><use transform="matrix(0.08024691358024691,0,0,0.08024691358024691,35.308641975308646,0)" xlink:href="#C"/><use transform="matrix(0.08024691358024691,0,0,0.08024691358024691,49.753086419753096,0)" xlink:href="#D"/><use transform="matrix(0.08024691358024691,0,0,0.08024691358024691,57.77777777777777,0)" xlink:href="#E"/><use transform="matrix(0.08024691358024691,0,0,0.08024691358024691,73.82716049382717,0)" xlink:href="#F"/><use transform="matrix(0.08024691358024691,0,0,0.08024691358024691,83.37654320987654,0)" xlink:href="#G"/><use transform="matrix(0.08024691358024691,0,0,0.08024691358024691,99.42592592592592,0)" xlink:href="#C"/></g><path fill="#333" d="M30-248c118-7 216 8 213 122C240-48 200 0 122 0H30v-248zM63-27c89 8 146-16 146-99s-60-101-146-95v194" id="H"/><path fill="#333" d="M141-36C126-15 110 5 73 4 37 3 15-17 15-53c-1-64 63-63 125-63 3-35-9-54-41-54-24 1-41 7-42 31l-33-3c5-37 33-52 76-52 45 0 72 20 72 64v82c-1 20 7 32 28 27v20c-31 9-61-2-59-35zM48-53c0 20 12 33 32 33 41-3 63-29 60-74-43 2-92-5-92 41" id="I"/><path fill="#333" d="M115-194c53 0 69 39 70 98 0 66-23 100-70 100C84 3 66-7 56-30L54 0H23l1-261h32v101c10-23 28-34 59-34zm-8 174c40 0 45-34 45-75 0-40-5-75-45-74-42 0-51 32-51 76 0 43 10 73 51 73" id="J"/><g id="b"><use transform="matrix(0.08024691358024691,0,0,0.08024691358024691,0,0)" xlink:href="#H"/><use transform="matrix(0.08024691358024691,0,0,0.08024691358024691,20.78395061728395,0)" xlink:href="#I"/><use transform="matrix(0.08024691358024691,0,0,0.08024691358024691,36.83333333333333,0)" xlink:href="#D"/><use transform="matrix(0.08024691358024691,0,0,0.08024691358024691,44.858024691358025,0)" xlink:href="#I"/><use transform="matrix(0.08024691358024691,0,0,0.08024691358024691,60.907407407407405,0)" xlink:href="#J"/><use transform="matrix(0.08024691358024691,0,0,0.08024691358024691,76.95679012345678,0)" xlink:href="#I"/><use transform="matrix(0.08024691358024691,0,0,0.08024691358024691,93.00617283950616,0)" xlink:href="#C"/><use transform="matrix(0.08024691358024691,0,0,0.08024691358024691,107.4506172839506,0)" xlink:href="#G"/></g><path fill="#333" d="M24-231v-30h32v30H24zM24 0v-190h32V0H24" id="K"/><path fill="#333" d="M117-194c89-4 53 116 60 194h-32v-121c0-31-8-49-39-48C34-167 62-67 57 0H25l-1-190h30c1 10-1 24 2 32 11-22 29-35 61-36" id="L"/><path fill="#333" d="M85-194c31 0 48 13 60 33l-1-100h32l1 261h-30c-2-10 0-23-3-31C134-8 116 4 85 4 32 4 16-35 15-94c0-66 23-100 70-100zm9 24c-40 0-46 34-46 75 0 40 6 74 45 74 42 0 51-32 51-76 0-42-9-74-50-73" id="M"/><path fill="#333" d="M141 0L90-78 38 0H4l68-98-65-92h35l48 74 47-74h35l-64 92 68 98h-35" id="N"/><path fill="#333" d="M33 0v-38h34V0H33" id="O"/><path fill="#333" d="M24-231v-30h32v30H24zM-9 49c24 4 33-6 33-30v-209h32V24c2 40-23 58-65 49V49" id="P"/><g id="c"><use transform="matrix(0.09259259259259256,0,0,0.09259259259259256,0,0)" xlink:href="#K"/><use transform="matrix(0.09259259259259256,0,0,0.09259259259259256,7.314814814814812,0)" xlink:href="#L"/><use transform="matrix(0.09259259259259256,0,0,0.09259259259259256,25.833333333333325,0)" xlink:href="#M"/><use transform="matrix(0.09259259259259256,0,0,0.09259259259259256,44.35185185185183,0)" xlink:href="#G"/><use transform="matrix(0.09259259259259256,0,0,0.09259259259259256,62.870370370370345,0)" xlink:href="#N"/><use transform="matrix(0.09259259259259256,0,0,0.09259259259259256,79.53703703703701,0)" xlink:href="#O"/><use transform="matrix(0.09259259259259256,0,0,0.09259259259259256,88.79629629629626,0)" xlink:href="#P"/><use transform="matrix(0.09259259259259256,0,0,0.09259259259259256,96.11111111111107,0)" xlink:href="#C"/></g><path fill="#333" d="M143 4C61 4 22-44 18-125c-5-107 100-154 193-111 17 8 29 25 37 43l-32 9c-13-25-37-40-76-40-61 0-88 39-88 99 0 61 29 100 91 101 35 0 62-11 79-27v-45h-74v-28h105v86C228-13 192 4 143 4" id="Q"/><path fill="#333" d="M96-169c-40 0-48 33-48 73s9 75 48 75c24 0 41-14 43-38l32 2c-6 37-31 61-74 61-59 0-76-41-82-99-10-93 101-131 147-64 4 7 5 14 7 22l-32 3c-4-21-16-35-41-35" id="R"/><path fill="#333" d="M179-190L93 31C79 59 56 82 12 73V49c39 6 53-20 64-50L1-190h34L92-34l54-156h33" id="S"/><path fill="#333" d="M30 0v-248h33v221h125V0H30" id="T"/><g id="d"><use transform="matrix(0.09259259259259256,0,0,0.09259259259259256,0,0)" xlink:href="#Q"/><use transform="matrix(0.09259259259259256,0,0,0.09259259259259256,25.925925925925917,0)" xlink:href="#F"/><use transform="matrix(0.09259259259259256,0,0,0.09259259259259256,36.94444444444443,0)" xlink:href="#B"/><use transform="matrix(0.09259259259259256,0,0,0.09259259259259256,55.46296296296294,0)" xlink:href="#R"/><use transform="matrix(0.09259259259259256,0,0,0.09259259259259256,72.1296296296296,0)" xlink:href="#G"/><use transform="matrix(0.09259259259259256,0,0,0.09259259259259256,90.64814814814812,0)" xlink:href="#F"/><use transform="matrix(0.09259259259259256,0,0,0.09259259259259256,101.66666666666666,0)" xlink:href="#S"/><use transform="matrix(0.09259259259259256,0,0,0.09259259259259256,118.33333333333329,0)" xlink:href="#T"/><use transform="matrix(0.09259259259259256,0,0,0.09259259259259256,136.85185185185182,0)" xlink:href="#K"/><use transform="matrix(0.09259259259259256,0,0,0.09259259259259256,144.16666666666663,0)" xlink:href="#C"/><use transform="matrix(0.09259259259259256,0,0,0.09259259259259256,160.8333333333333,0)" xlink:href="#D"/><use transform="matrix(0.09259259259259256,0,0,0.09259259259259256,170.09259259259255,0)" xlink:href="#O"/><use transform="matrix(0.09259259259259256,0,0,0.09259259259259256,179.35185185185182,0)" xlink:href="#P"/><use transform="matrix(0.09259259259259256,0,0,0.09259259259259256,186.66666666666663,0)" xlink:href="#C"/></g><path fill="#333" d="M197 0v-115H63V0H30v-248h33v105h134v-105h34V0h-34" id="U"/><g id="e"><use transform="matrix(0.09259259259259256,0,0,0.09259259259259256,0,0)" xlink:href="#U"/><use transform="matrix(0.09259259259259256,0,0,0.09259259259259256,23.981481481481474,0)" xlink:href="#G"/><use transform="matrix(0.09259259259259256,0,0,0.09259259259259256,42.499999999999986,0)" xlink:href="#I"/><use transform="matrix(0.09259259259259256,0,0,0.09259259259259256,61.0185185185185,0)" xlink:href="#M"/><use transform="matrix(0.09259259259259256,0,0,0.09259259259259256,79.53703703703701,0)" xlink:href="#G"/><use transform="matrix(0.09259259259259256,0,0,0.09259259259259256,98.05555555555551,0)" xlink:href="#F"/><use transform="matrix(0.09259259259259256,0,0,0.09259259259259256,107.22222222222219,0)" xlink:href="#O"/><use transform="matrix(0.09259259259259256,0,0,0.09259259259259256,116.48148148148144,0)" xlink:href="#P"/><use transform="matrix(0.09259259259259256,0,0,0.09259259259259256,123.79629629629625,0)" xlink:href="#C"/></g><g id="f"><use transform="matrix(0.09259259259259256,0,0,0.09259259259259256,0,0)" xlink:href="#T"/><use transform="matrix(0.09259259259259256,0,0,0.09259259259259256,18.518518518518512,0)" xlink:href="#K"/><use transform="matrix(0.09259259259259256,0,0,0.09259259259259256,25.833333333333325,0)" xlink:href="#C"/><use transform="matrix(0.09259259259259256,0,0,0.09259259259259256,42.499999999999986,0)" xlink:href="#D"/><use transform="matrix(0.09259259259259256,0,0,0.09259259259259256,51.75925925925924,0)" xlink:href="#O"/><use transform="matrix(0.09259259259259256,0,0,0.09259259259259256,61.01851851851848,0)" xlink:href="#P"/><use transform="matrix(0.09259259259259256,0,0,0.09259259259259256,68.3333333333333,0)" xlink:href="#C"/></g><path fill="#333" d="M232-93c-1 65-40 97-104 97C67 4 28-28 28-90v-158h33c8 89-33 224 67 224 102 0 64-133 71-224h33v155" id="V"/><path fill="#333" d="M24 0v-261h32V0H24" id="W"/><g id="g"><use transform="matrix(0.09259259259259256,0,0,0.09259259259259256,0,0)" xlink:href="#V"/><use transform="matrix(0.09259259259259256,0,0,0.09259259259259256,23.981481481481474,0)" xlink:href="#D"/><use transform="matrix(0.09259259259259256,0,0,0.09259259259259256,33.24074074074073,0)" xlink:href="#K"/><use transform="matrix(0.09259259259259256,0,0,0.09259259259259256,40.55555555555554,0)" xlink:href="#W"/><use transform="matrix(0.09259259259259256,0,0,0.09259259259259256,47.87037037037035,0)" xlink:href="#K"/><use transform="matrix(0.09259259259259256,0,0,0.09259259259259256,55.18518518518516,0)" xlink:href="#D"/><use transform="matrix(0.09259259259259256,0,0,0.09259259259259256,64.44444444444441,0)" xlink:href="#K"/><use transform="matrix(0.09259259259259256,0,0,0.09259259259259256,71.75925925925922,0)" xlink:href="#G"/><use transform="matrix(0.09259259259259256,0,0,0.09259259259259256,90.27777777777774,0)" xlink:href="#C"/><use transform="matrix(0.09259259259259256,0,0,0.09259259259259256,106.9444444444444,0)" xlink:href="#O"/><use transform="matrix(0.09259259259259256,0,0,0.09259259259259256,116.20370370370367,0)" xlink:href="#P"/><use transform="matrix(0.09259259259259256,0,0,0.09259259259259256,123.51851851851845,0)" xlink:href="#C"/></g><path fill="#333" d="M33 0v-248h34V0H33" id="X"/><path fill="#333" d="M210-169c-67 3-38 105-44 169h-31v-121c0-29-5-50-35-48C34-165 62-65 56 0H25l-1-190h30c1 10-1 24 2 32 10-44 99-50 107 0 11-21 27-35 58-36 85-2 47 119 55 194h-31v-121c0-29-5-49-35-48" id="Y"/><g id="h"><use transform="matrix(0.09259259259259256,0,0,0.09259259259259256,0,0)" xlink:href="#T"/><use transform="matrix(0.09259259259259256,0,0,0.09259259259259256,18.518518518518512,0)" xlink:href="#K"/><use transform="matrix(0.09259259259259256,0,0,0.09259259259259256,25.833333333333325,0)" xlink:href="#C"/><use transform="matrix(0.09259259259259256,0,0,0.09259259259259256,42.499999999999986,0)" xlink:href="#D"/><use transform="matrix(0.09259259259259256,0,0,0.09259259259259256,51.75925925925924,0)" xlink:href="#X"/><use transform="matrix(0.09259259259259256,0,0,0.09259259259259256,61.01851851851848,0)" xlink:href="#D"/><use transform="matrix(0.09259259259259256,0,0,0.09259259259259256,70.27777777777774,0)" xlink:href="#G"/><use transform="matrix(0.09259259259259256,0,0,0.09259259259259256,88.79629629629625,0)" xlink:href="#Y"/><use transform="matrix(0.09259259259259256,0,0,0.09259259259259256,116.48148148148142,0)" xlink:href="#C"/><use transform="matrix(0.09259259259259256,0,0,0.09259259259259256,133.1481481481481,0)" xlink:href="#O"/><use transform="matrix(0.09259259259259256,0,0,0.09259259259259256,142.40740740740736,0)" xlink:href="#P"/><use transform="matrix(0.09259259259259256,0,0,0.09259259259259256,149.72222222222217,0)" xlink:href="#C"/></g><g id="i"><use transform="matrix(0.07407407407407401,0,0,0.07407407407407401,0,0)" xlink:href="#M"/><use transform="matrix(0.07407407407407401,0,0,0.07407407407407401,14.814814814814802,0)" xlink:href="#G"/><use transform="matrix(0.07407407407407401,0,0,0.07407407407407401,29.629629629629605,0)" xlink:href="#W"/><use transform="matrix(0.07407407407407401,0,0,0.07407407407407401,35.48148148148145,0)" xlink:href="#G"/><use transform="matrix(0.07407407407407401,0,0,0.07407407407407401,50.296296296296255,0)" xlink:href="#D"/><use transform="matrix(0.07407407407407401,0,0,0.07407407407407401,57.703703703703646,0)" xlink:href="#G"/><use transform="matrix(0.07407407407407401,0,0,0.07407407407407401,72.51851851851845,0)" xlink:href="#U"/><use transform="matrix(0.07407407407407401,0,0,0.07407407407407401,91.70370370370361,0)" xlink:href="#I"/><use transform="matrix(0.07407407407407401,0,0,0.07407407407407401,106.51851851851842,0)" xlink:href="#L"/><use transform="matrix(0.07407407407407401,0,0,0.07407407407407401,121.33333333333323,0)" xlink:href="#M"/><use transform="matrix(0.07407407407407401,0,0,0.07407407407407401,136.14814814814804,0)" xlink:href="#W"/><use transform="matrix(0.07407407407407401,0,0,0.07407407407407401,141.9999999999999,0)" xlink:href="#G"/><use transform="matrix(0.07407407407407401,0,0,0.07407407407407401,156.8148148148147,0)" xlink:href="#F"/></g><g id="j"><use transform="matrix(0.07407407407407401,0,0,0.07407407407407401,0,0)" xlink:href="#G"/><use transform="matrix(0.07407407407407401,0,0,0.07407407407407401,14.814814814814802,0)" xlink:href="#M"/><use transform="matrix(0.07407407407407401,0,0,0.07407407407407401,29.629629629629605,0)" xlink:href="#K"/><use transform="matrix(0.07407407407407401,0,0,0.07407407407407401,35.48148148148145,0)" xlink:href="#D"/><use transform="matrix(0.07407407407407401,0,0,0.07407407407407401,42.88888888888886,0)" xlink:href="#U"/><use transform="matrix(0.07407407407407401,0,0,0.07407407407407401,62.074074074074026,0)" xlink:href="#I"/><use transform="matrix(0.07407407407407401,0,0,0.07407407407407401,76.88888888888883,0)" xlink:href="#L"/><use transform="matrix(0.07407407407407401,0,0,0.07407407407407401,91.70370370370365,0)" xlink:href="#M"/><use transform="matrix(0.07407407407407401,0,0,0.07407407407407401,106.51851851851845,0)" xlink:href="#W"/><use transform="matrix(0.07407407407407401,0,0,0.07407407407407401,112.3703703703703,0)" xlink:href="#G"/><use transform="matrix(0.07407407407407401,0,0,0.07407407407407401,127.1851851851851,0)" xlink:href="#F"/></g><g id="k"><use transform="matrix(0.07407407407407401,0,0,0.07407407407407401,0,0)" xlink:href="#I"/><use transform="matrix(0.07407407407407401,0,0,0.07407407407407401,14.814814814814802,0)" xlink:href="#M"/><use transform="matrix(0.07407407407407401,0,0,0.07407407407407401,29.629629629629605,0)" xlink:href="#M"/><use transform="matrix(0.07407407407407401,0,0,0.07407407407407401,44.44444444444441,0)" xlink:href="#U"/><use transform="matrix(0.07407407407407401,0,0,0.07407407407407401,63.62962962962958,0)" xlink:href="#I"/><use transform="matrix(0.07407407407407401,0,0,0.07407407407407401,78.44444444444436,0)" xlink:href="#L"/><use transform="matrix(0.07407407407407401,0,0,0.07407407407407401,93.25925925925918,0)" xlink:href="#M"/><use transform="matrix(0.07407407407407401,0,0,0.07407407407407401,108.07407407407399,0)" xlink:href="#W"/><use transform="matrix(0.07407407407407401,0,0,0.07407407407407401,113.92592592592584,0)" xlink:href="#G"/><use transform="matrix(0.07407407407407401,0,0,0.07407407407407401,128.74074074074065,0)" xlink:href="#F"/></g><path fill="#333" d="M115-194c55 1 70 41 70 98S169 2 115 4C84 4 66-9 55-30l1 105H24l-1-265h31l2 30c10-21 28-34 59-34zm-8 174c40 0 45-34 45-75s-6-73-45-74c-42 0-51 32-51 76 0 43 10 73 51 73" id="Z"/><path fill="#333" d="M84 4C-5 8 30-112 23-190h32v120c0 31 7 50 39 49 72-2 45-101 50-169h31l1 190h-30c-1-10 1-25-2-33-11 22-28 36-60 37" id="aa"/><path fill="#333" d="M106-169C34-169 62-67 57 0H25v-261h32l-1 103c12-21 28-36 61-36 89 0 53 116 60 194h-32v-121c2-32-8-49-39-48" id="ab"/><g id="l"><use transform="matrix(0.06790123456790118,0,0,0.06790123456790118,0,0)" xlink:href="#Z"/><use transform="matrix(0.06790123456790118,0,0,0.06790123456790118,13.580246913580234,0)" xlink:href="#aa"/><use transform="matrix(0.06790123456790118,0,0,0.06790123456790118,27.16049382716047,0)" xlink:href="#F"/><use transform="matrix(0.06790123456790118,0,0,0.06790123456790118,35.240740740740705,0)" xlink:href="#R"/><use transform="matrix(0.06790123456790118,0,0,0.06790123456790118,47.46296296296292,0)" xlink:href="#ab"/><use transform="matrix(0.06790123456790118,0,0,0.06790123456790118,61.04320987654315,0)" xlink:href="#I"/><use transform="matrix(0.06790123456790118,0,0,0.06790123456790118,74.6234567901234,0)" xlink:href="#C"/><use transform="matrix(0.06790123456790118,0,0,0.06790123456790118,86.8456790123456,0)" xlink:href="#G"/><use transform="matrix(0.06790123456790118,0,0,0.06790123456790118,100.42592592592584,0)" xlink:href="#M"/><use transform="matrix(0.06790123456790118,0,0,0.06790123456790118,114.00617283950608,0)" xlink:href="#U"/><use transform="matrix(0.06790123456790118,0,0,0.06790123456790118,131.5925925925925,0)" xlink:href="#I"/><use transform="matrix(0.06790123456790118,0,0,0.06790123456790118,145.17283950617272,0)" xlink:href="#L"/><use transform="matrix(0.06790123456790118,0,0,0.06790123456790118,158.75308641975295,0)" xlink:href="#M"/><use transform="matrix(0.06790123456790118,0,0,0.06790123456790118,172.33333333333317,0)" xlink:href="#W"/><use transform="matrix(0.06790123456790118,0,0,0.06790123456790118,177.69753086419738,0)" xlink:href="#G"/><use transform="matrix(0.06790123456790118,0,0,0.06790123456790118,191.2777777777776,0)" xlink:href="#F"/></g><path fill="#333" d="M233-177c-1 41-23 64-60 70L243 0h-38l-65-103H63V0H30v-248c88 3 205-21 203 71zM63-129c60-2 137 13 137-47 0-61-80-42-137-45v92" id="ac"/><g id="m"><use transform="matrix(0.13580246913580238,0,0,0.13580246913580238,0,0)" xlink:href="#ac"/><use transform="matrix(0.13580246913580238,0,0,0.13580246913580238,35.172839506172814,0)" xlink:href="#G"/><use transform="matrix(0.13580246913580238,0,0,0.13580246913580238,62.333333333333286,0)" xlink:href="#I"/><use transform="matrix(0.13580246913580238,0,0,0.13580246913580238,89.49382716049377,0)" xlink:href="#R"/><use transform="matrix(0.13580246913580238,0,0,0.13580246913580238,113.9382716049382,0)" xlink:href="#D"/></g><path fill="#333" d="M63-220v92h138v28H63V0H30v-248h175v28H63" id="ad"/><g id="n"><use transform="matrix(0.13580246913580238,0,0,0.13580246913580238,0,0)" xlink:href="#ad"/><use transform="matrix(0.13580246913580238,0,0,0.13580246913580238,29.74074074074072,0)" xlink:href="#F"/><use transform="matrix(0.13580246913580238,0,0,0.13580246913580238,45.9012345679012,0)" xlink:href="#B"/><use transform="matrix(0.13580246913580238,0,0,0.13580246913580238,73.06172839506168,0)" xlink:href="#L"/><use transform="matrix(0.13580246913580238,0,0,0.13580246913580238,100.22222222222216,0)" xlink:href="#D"/><use transform="matrix(0.13580246913580238,0,0,0.13580246913580238,113.8024691358024,0)" xlink:href="#G"/><use transform="matrix(0.13580246913580238,0,0,0.13580246913580238,140.96296296296288,0)" xlink:href="#L"/><use transform="matrix(0.13580246913580238,0,0,0.13580246913580238,168.12345679012336,0)" xlink:href="#M"/></g><path fill="#333" d="M160-131c35 5 61 23 61 61C221 17 115-2 30 0v-248c76 3 177-17 177 60 0 33-19 50-47 57zm-97-11c50-1 110 9 110-42 0-47-63-36-110-37v79zm0 115c55-2 124 14 124-45 0-56-70-42-124-44v89" id="ae"/><path fill="#333" d="M143 0L79-87 56-68V0H24v-261h32v163l83-92h37l-77 82L181 0h-38" id="af"/><g id="o"><use transform="matrix(0.11111111111111108,0,0,0.11111111111111108,0,0)" xlink:href="#ae"/><use transform="matrix(0.11111111111111108,0,0,0.11111111111111108,26.666666666666657,0)" xlink:href="#I"/><use transform="matrix(0.11111111111111108,0,0,0.11111111111111108,48.88888888888887,0)" xlink:href="#R"/><use transform="matrix(0.11111111111111108,0,0,0.11111111111111108,68.88888888888886,0)" xlink:href="#af"/><use transform="matrix(0.11111111111111108,0,0,0.11111111111111108,88.88888888888886,0)" xlink:href="#G"/><use transform="matrix(0.11111111111111108,0,0,0.11111111111111108,111.11111111111107,0)" xlink:href="#L"/><use transform="matrix(0.11111111111111108,0,0,0.11111111111111108,133.3333333333333,0)" xlink:href="#M"/></g><g id="p"><use transform="matrix(0.0987654320987654,0,0,0.0987654320987654,0,0)" xlink:href="#I"/><use transform="matrix(0.0987654320987654,0,0,0.0987654320987654,19.753086419753078,0)" xlink:href="#Z"/><use transform="matrix(0.0987654320987654,0,0,0.0987654320987654,39.506172839506156,0)" xlink:href="#K"/></g><g id="q"><use transform="matrix(0.12345679012345674,0,0,0.12345679012345674,0,0)" xlink:href="#aa"/><use transform="matrix(0.12345679012345674,0,0,0.12345679012345674,24.691358024691347,0)" xlink:href="#C"/><use transform="matrix(0.12345679012345674,0,0,0.12345679012345674,46.91358024691356,0)" xlink:href="#G"/><use transform="matrix(0.12345679012345674,0,0,0.12345679012345674,71.60493827160491,0)" xlink:href="#F"/><use transform="matrix(0.12345679012345674,0,0,0.12345679012345674,86.29629629629626,0)" xlink:href="#C"/></g><path fill="#333" d="M30 0v-248h187v28H63v79h144v27H63v87h162V0H30" id="ag"/><path fill="#333" d="M127-220V0H93v-220H8v-28h204v28h-85" id="ah"/><g id="r"><use transform="matrix(0.06172839506172839,0,0,0.06172839506172839,0,0)" xlink:href="#Q"/><use transform="matrix(0.06172839506172839,0,0,0.06172839506172839,17.28395061728395,0)" xlink:href="#ag"/><use transform="matrix(0.06172839506172839,0,0,0.06172839506172839,32.09876543209876,0)" xlink:href="#ah"/></g><g id="s"><use transform="matrix(0.06172839506172839,0,0,0.06172839506172839,0,0)" xlink:href="#A"/><use transform="matrix(0.06172839506172839,0,0,0.06172839506172839,14.814814814814813,0)" xlink:href="#V"/><use transform="matrix(0.06172839506172839,0,0,0.06172839506172839,30.80246913580247,0)" xlink:href="#ah"/></g><path fill="#333" d="M140-251c81 0 123 46 123 126C263-46 219 4 140 4 59 4 17-45 17-125s42-126 123-126zm0 227c63 0 89-41 89-101s-29-99-89-99c-61 0-89 39-89 99S79-25 140-24" id="ai"/><path fill="#333" d="M185-189c-5-48-123-54-124 2 14 75 158 14 163 119 3 78-121 87-175 55-17-10-28-26-33-46l33-7c5 56 141 63 141-1 0-78-155-14-162-118-5-82 145-84 179-34 5 7 8 16 11 25" id="aj"/><g id="t"><use transform="matrix(0.06172839506172839,0,0,0.06172839506172839,0,0)" xlink:href="#A"/><use transform="matrix(0.06172839506172839,0,0,0.06172839506172839,14.814814814814813,0)" xlink:href="#ai"/><use transform="matrix(0.06172839506172839,0,0,0.06172839506172839,32.09876543209876,0)" xlink:href="#aj"/><use transform="matrix(0.06172839506172839,0,0,0.06172839506172839,46.91358024691357,0)" xlink:href="#ah"/></g><g id="u"><use transform="matrix(0.06172839506172839,0,0,0.06172839506172839,0,0)" xlink:href="#H"/><use transform="matrix(0.06172839506172839,0,0,0.06172839506172839,15.987654320987653,0)" xlink:href="#ag"/><use transform="matrix(0.06172839506172839,0,0,0.06172839506172839,30.80246913580247,0)" xlink:href="#T"/><use transform="matrix(0.06172839506172839,0,0,0.06172839506172839,43.148148148148145,0)" xlink:href="#ag"/><use transform="matrix(0.06172839506172839,0,0,0.06172839506172839,57.96296296296296,0)" xlink:href="#ah"/><use transform="matrix(0.06172839506172839,0,0,0.06172839506172839,71.48148148148148,0)" xlink:href="#ag"/></g><g id="v"><use transform="matrix(0.06172839506172839,0,0,0.06172839506172839,0,0)" xlink:href="#ac"/><use transform="matrix(0.06172839506172839,0,0,0.06172839506172839,15.987654320987653,0)" xlink:href="#G"/><use transform="matrix(0.06172839506172839,0,0,0.06172839506172839,28.333333333333332,0)" xlink:href="#C"/><use transform="matrix(0.06172839506172839,0,0,0.06172839506172839,39.44444444444444,0)" xlink:href="#Z"/><use transform="matrix(0.06172839506172839,0,0,0.06172839506172839,51.79012345679012,0)" xlink:href="#B"/><use transform="matrix(0.06172839506172839,0,0,0.06172839506172839,64.1358024691358,0)" xlink:href="#L"/><use transform="matrix(0.06172839506172839,0,0,0.06172839506172839,76.48148148148148,0)" xlink:href="#C"/><use transform="matrix(0.06172839506172839,0,0,0.06172839506172839,87.5925925925926,0)" xlink:href="#G"/></g><path fill="#333" d="M101-234c-31-9-42 10-38 44h38v23H63V0H32v-167H5v-23h27c-7-52 17-82 69-68v24" id="ak"/><g id="w"><use transform="matrix(0.08641975308641973,0,0,0.08641975308641973,0,0)" xlink:href="#X"/><use transform="matrix(0.08641975308641973,0,0,0.08641975308641973,8.641975308641973,0)" xlink:href="#ak"/></g><path fill="#333" d="M205 0l-28-72H64L36 0H1l101-248h38L239 0h-34zm-38-99l-47-123c-12 45-31 82-46 123h93" id="al"/><g id="x"><use transform="matrix(0.08641975308641973,0,0,0.08641975308641973,0,0)" xlink:href="#al"/><use transform="matrix(0.08641975308641973,0,0,0.08641975308641973,20.740740740740737,0)" xlink:href="#aa"/><use transform="matrix(0.08641975308641973,0,0,0.08641975308641973,38.02469135802468,0)" xlink:href="#D"/><use transform="matrix(0.08641975308641973,0,0,0.08641975308641973,46.66666666666666,0)" xlink:href="#ab"/><use transform="matrix(0.08641975308641973,0,0,0.08641975308641973,63.950617283950606,0)" xlink:href="#G"/><use transform="matrix(0.08641975308641973,0,0,0.08641975308641973,81.23456790123456,0)" xlink:href="#L"/><use transform="matrix(0.08641975308641973,0,0,0.08641975308641973,98.51851851851849,0)" xlink:href="#D"/><use transform="matrix(0.08641975308641973,0,0,0.08641975308641973,107.16049382716047,0)" xlink:href="#K"/><use transform="matrix(0.08641975308641973,0,0,0.08641975308641973,113.98765432098764,0)" xlink:href="#R"/><use transform="matrix(0.08641975308641973,0,0,0.08641975308641973,129.5432098765432,0)" xlink:href="#I"/><use transform="matrix(0.08641975308641973,0,0,0.08641975308641973,146.82716049382714,0)" xlink:href="#D"/><use transform="matrix(0.08641975308641973,0,0,0.08641975308641973,155.4691358024691,0)" xlink:href="#G"/><use transform="matrix(0.08641975308641973,0,0,0.08641975308641973,172.75308641975306,0)" xlink:href="#M"/></g><path fill="#333" d="M67-125c0 54 23 88 75 88 28 0 53-7 68-21v-34h-60v-39h108v91C232-14 192 4 140 4 58 4 20-42 15-125 8-236 126-280 215-234c19 10 29 26 37 47l-47 15c-11-23-29-39-63-39-53 1-75 33-75 86" id="am"/><path fill="#333" d="M135-150c-39-12-60 13-60 57V0H25l-1-190h47c2 13-1 29 3 40 6-28 27-53 61-41v41" id="an"/><path fill="#333" d="M110-194c64 0 96 36 96 99 0 64-35 99-97 99-61 0-95-36-95-99 0-62 34-99 96-99zm-1 164c35 0 45-28 45-65 0-40-10-65-43-65-34 0-45 26-45 65 0 36 10 65 43 65" id="ao"/><path fill="#333" d="M190-63c-7 42-38 67-86 67-59 0-84-38-90-98-12-110 154-137 174-36l-49 2c-2-19-15-32-35-32-30 0-35 28-38 64-6 74 65 87 74 30" id="ap"/><path fill="#333" d="M185-48c-13 30-37 53-82 52C43 2 14-33 14-96s30-98 90-98c62 0 83 45 84 108H66c0 31 8 55 39 56 18 0 30-7 34-22zm-45-69c5-46-57-63-70-21-2 6-4 13-4 21h74" id="aq"/><path fill="#333" d="M123 10C108 53 80 86 19 72V37c35 8 53-11 59-39L3-190h52l48 148c12-52 28-100 44-148h51" id="ar"/><g id="y"><use transform="matrix(0.1419753086419752,0,0,0.1419753086419752,0,0)" xlink:href="#am"/><use transform="matrix(0.1419753086419752,0,0,0.1419753086419752,39.75308641975305,0)" xlink:href="#an"/><use transform="matrix(0.1419753086419752,0,0,0.1419753086419752,59.62962962962958,0)" xlink:href="#ao"/><use transform="matrix(0.1419753086419752,0,0,0.1419753086419752,90.72222222222214,0)" xlink:href="#ap"/><use transform="matrix(0.1419753086419752,0,0,0.1419753086419752,119.11728395061718,0)" xlink:href="#aq"/><use transform="matrix(0.1419753086419752,0,0,0.1419753086419752,147.5123456790122,0)" xlink:href="#an"/><use transform="matrix(0.1419753086419752,0,0,0.1419753086419752,167.38888888888874,0)" xlink:href="#ar"/></g><path fill="#333" d="M24 0v-248h52v208h133V0H24" id="as"/><path fill="#333" d="M25-224v-37h50v37H25zM25 0v-190h50V0H25" id="at"/><path fill="#333" d="M137-138c1-29-70-34-71-4 15 46 118 7 119 86 1 83-164 76-172 9l43-7c4 19 20 25 44 25 33 8 57-30 24-41C81-84 22-81 20-136c-2-80 154-74 161-7" id="au"/><path fill="#333" d="M115-3C79 11 28 4 28-45v-112H4v-33h27l15-45h31v45h36v33H77v99c-1 23 16 31 38 25v30" id="av"/><g id="z"><use transform="matrix(0.1419753086419752,0,0,0.1419753086419752,0,0)" xlink:href="#as"/><use transform="matrix(0.1419753086419752,0,0,0.1419753086419752,31.092592592592567,0)" xlink:href="#at"/><use transform="matrix(0.1419753086419752,0,0,0.1419753086419752,45.290123456790084,0)" xlink:href="#au"/><use transform="matrix(0.1419753086419752,0,0,0.1419753086419752,73.68518518518512,0)" xlink:href="#av"/></g></defs></g></svg>